G04 #@! TF.GenerationSoftware,KiCad,Pcbnew,8.0.8*
G04 #@! TF.CreationDate,2025-02-24T17:12:59+09:00*
G04 #@! TF.ProjectId,corne-classic,636f726e-652d-4636-9c61-737369632e6b,1.1*
G04 #@! TF.SameCoordinates,Original*
G04 #@! TF.FileFunction,Soldermask,Bot*
G04 #@! TF.FilePolarity,Negative*
%FSLAX46Y46*%
G04 Gerber Fmt 4.6, Leading zero omitted, Abs format (unit mm)*
G04 Created by KiCad (PCBNEW 8.0.8) date 2025-02-24 17:12:59*
%MOMM*%
%LPD*%
G01*
G04 APERTURE LIST*
G04 Aperture macros list*
%AMRoundRect*
0 Rectangle with rounded corners*
0 $1 Rounding radius*
0 $2 $3 $4 $5 $6 $7 $8 $9 X,Y pos of 4 corners*
0 Add a 4 corners polygon primitive as box body*
4,1,4,$2,$3,$4,$5,$6,$7,$8,$9,$2,$3,0*
0 Add four circle primitives for the rounded corners*
1,1,$1+$1,$2,$3*
1,1,$1+$1,$4,$5*
1,1,$1+$1,$6,$7*
1,1,$1+$1,$8,$9*
0 Add four rect primitives between the rounded corners*
20,1,$1+$1,$2,$3,$4,$5,0*
20,1,$1+$1,$4,$5,$6,$7,0*
20,1,$1+$1,$6,$7,$8,$9,0*
20,1,$1+$1,$8,$9,$2,$3,0*%
%AMHorizOval*
0 Thick line with rounded ends*
0 $1 width*
0 $2 $3 position (X,Y) of the first rounded end (center of the circle)*
0 $4 $5 position (X,Y) of the second rounded end (center of the circle)*
0 Add line between two ends*
20,1,$1,$2,$3,$4,$5,0*
0 Add two circle primitives to create the rounded ends*
1,1,$1,$2,$3*
1,1,$1,$4,$5*%
G04 Aperture macros list end*
%ADD10C,0.125000*%
%ADD11RoundRect,0.200000X-0.475000X0.650000X-0.475000X-0.650000X0.475000X-0.650000X0.475000X0.650000X0*%
%ADD12RoundRect,0.200000X-0.698500X0.698500X-0.698500X-0.698500X0.698500X-0.698500X0.698500X0.698500X0*%
%ADD13C,1.797000*%
%ADD14RoundRect,0.200000X-0.800000X-0.500000X0.800000X-0.500000X0.800000X0.500000X-0.800000X0.500000X0*%
%ADD15RoundRect,0.200000X-0.902150X-0.275908X0.643331X-0.690018X0.902150X0.275908X-0.643331X0.690018X0*%
%ADD16RoundRect,0.200000X-0.033013X0.942820X-0.833013X-0.442820X0.033013X-0.942820X0.833013X0.442820X0*%
%ADD17C,2.100000*%
%ADD18C,2.300000*%
%ADD19C,4.400000*%
%ADD20C,1.400000*%
%ADD21C,2.800000*%
%ADD22HorizOval,1.650000X-0.305324X0.363871X0.305324X-0.363871X0*%
%ADD23HorizOval,1.650000X-0.305324X-0.363871X0.305324X0.363871X0*%
%ADD24HorizOval,1.950000X-0.401742X-0.478778X0.401742X0.478778X0*%
%ADD25C,2.600000*%
%ADD26HorizOval,1.950000X-0.401742X0.478778X0.401742X-0.478778X0*%
%ADD27HorizOval,1.950000X-0.511970X-0.358485X0.511970X0.358485X0*%
%ADD28HorizOval,1.650000X-0.200744X0.430496X0.200744X-0.430496X0*%
%ADD29HorizOval,1.650000X-0.389097X-0.272449X0.389097X0.272449X0*%
%ADD30HorizOval,1.950000X-0.264136X0.566442X0.264136X-0.566442X0*%
%ADD31HorizOval,1.650000X0.162460X-0.446354X-0.162460X0.446354X0*%
%ADD32HorizOval,1.650000X-0.467784X-0.082483X0.467784X0.082483X0*%
%ADD33HorizOval,1.950000X0.213763X-0.587308X-0.213763X0.587308X0*%
%ADD34HorizOval,1.950000X-0.615505X-0.108530X0.615505X0.108530X0*%
%ADD35C,1.924000*%
%ADD36C,5.400000*%
%ADD37RoundRect,0.200000X0.762000X0.762000X-0.762000X0.762000X-0.762000X-0.762000X0.762000X-0.762000X0*%
%ADD38C,1.600000*%
%ADD39O,2.900000X2.100000*%
%ADD40C,2.400000*%
%ADD41RoundRect,0.200000X-1.000000X-0.500000X1.000000X-0.500000X1.000000X0.500000X-1.000000X0.500000X0*%
%ADD42RoundRect,0.200000X1.000000X0.500000X-1.000000X0.500000X-1.000000X-0.500000X1.000000X-0.500000X0*%
%ADD43RoundRect,0.200000X-0.571500X0.317500X-0.571500X-0.317500X0.571500X-0.317500X0.571500X0.317500X0*%
G04 APERTURE END LIST*
D10*
X118508240Y-121055908D02*
X118555859Y-121103528D01*
X118555859Y-121103528D02*
X118698716Y-121151147D01*
X118698716Y-121151147D02*
X118793954Y-121151147D01*
X118793954Y-121151147D02*
X118936811Y-121103528D01*
X118936811Y-121103528D02*
X119032049Y-121008289D01*
X119032049Y-121008289D02*
X119079668Y-120913051D01*
X119079668Y-120913051D02*
X119127287Y-120722575D01*
X119127287Y-120722575D02*
X119127287Y-120579718D01*
X119127287Y-120579718D02*
X119079668Y-120389242D01*
X119079668Y-120389242D02*
X119032049Y-120294004D01*
X119032049Y-120294004D02*
X118936811Y-120198766D01*
X118936811Y-120198766D02*
X118793954Y-120151147D01*
X118793954Y-120151147D02*
X118698716Y-120151147D01*
X118698716Y-120151147D02*
X118555859Y-120198766D01*
X118555859Y-120198766D02*
X118508240Y-120246385D01*
X117936811Y-121151147D02*
X118032049Y-121103528D01*
X118032049Y-121103528D02*
X118079668Y-121055908D01*
X118079668Y-121055908D02*
X118127287Y-120960670D01*
X118127287Y-120960670D02*
X118127287Y-120674956D01*
X118127287Y-120674956D02*
X118079668Y-120579718D01*
X118079668Y-120579718D02*
X118032049Y-120532099D01*
X118032049Y-120532099D02*
X117936811Y-120484480D01*
X117936811Y-120484480D02*
X117793954Y-120484480D01*
X117793954Y-120484480D02*
X117698716Y-120532099D01*
X117698716Y-120532099D02*
X117651097Y-120579718D01*
X117651097Y-120579718D02*
X117603478Y-120674956D01*
X117603478Y-120674956D02*
X117603478Y-120960670D01*
X117603478Y-120960670D02*
X117651097Y-121055908D01*
X117651097Y-121055908D02*
X117698716Y-121103528D01*
X117698716Y-121103528D02*
X117793954Y-121151147D01*
X117793954Y-121151147D02*
X117936811Y-121151147D01*
X117174906Y-121151147D02*
X117174906Y-120484480D01*
X117174906Y-120674956D02*
X117127287Y-120579718D01*
X117127287Y-120579718D02*
X117079668Y-120532099D01*
X117079668Y-120532099D02*
X116984430Y-120484480D01*
X116984430Y-120484480D02*
X116889192Y-120484480D01*
X116555858Y-120484480D02*
X116555858Y-121151147D01*
X116555858Y-120579718D02*
X116508239Y-120532099D01*
X116508239Y-120532099D02*
X116413001Y-120484480D01*
X116413001Y-120484480D02*
X116270144Y-120484480D01*
X116270144Y-120484480D02*
X116174906Y-120532099D01*
X116174906Y-120532099D02*
X116127287Y-120627337D01*
X116127287Y-120627337D02*
X116127287Y-121151147D01*
X115270144Y-121103528D02*
X115365382Y-121151147D01*
X115365382Y-121151147D02*
X115555858Y-121151147D01*
X115555858Y-121151147D02*
X115651096Y-121103528D01*
X115651096Y-121103528D02*
X115698715Y-121008289D01*
X115698715Y-121008289D02*
X115698715Y-120627337D01*
X115698715Y-120627337D02*
X115651096Y-120532099D01*
X115651096Y-120532099D02*
X115555858Y-120484480D01*
X115555858Y-120484480D02*
X115365382Y-120484480D01*
X115365382Y-120484480D02*
X115270144Y-120532099D01*
X115270144Y-120532099D02*
X115222525Y-120627337D01*
X115222525Y-120627337D02*
X115222525Y-120722575D01*
X115222525Y-120722575D02*
X115698715Y-120817813D01*
X113460620Y-121055908D02*
X113508239Y-121103528D01*
X113508239Y-121103528D02*
X113651096Y-121151147D01*
X113651096Y-121151147D02*
X113746334Y-121151147D01*
X113746334Y-121151147D02*
X113889191Y-121103528D01*
X113889191Y-121103528D02*
X113984429Y-121008289D01*
X113984429Y-121008289D02*
X114032048Y-120913051D01*
X114032048Y-120913051D02*
X114079667Y-120722575D01*
X114079667Y-120722575D02*
X114079667Y-120579718D01*
X114079667Y-120579718D02*
X114032048Y-120389242D01*
X114032048Y-120389242D02*
X113984429Y-120294004D01*
X113984429Y-120294004D02*
X113889191Y-120198766D01*
X113889191Y-120198766D02*
X113746334Y-120151147D01*
X113746334Y-120151147D02*
X113651096Y-120151147D01*
X113651096Y-120151147D02*
X113508239Y-120198766D01*
X113508239Y-120198766D02*
X113460620Y-120246385D01*
X112889191Y-121151147D02*
X112984429Y-121103528D01*
X112984429Y-121103528D02*
X113032048Y-121008289D01*
X113032048Y-121008289D02*
X113032048Y-120151147D01*
X112079667Y-121151147D02*
X112079667Y-120627337D01*
X112079667Y-120627337D02*
X112127286Y-120532099D01*
X112127286Y-120532099D02*
X112222524Y-120484480D01*
X112222524Y-120484480D02*
X112413000Y-120484480D01*
X112413000Y-120484480D02*
X112508238Y-120532099D01*
X112079667Y-121103528D02*
X112174905Y-121151147D01*
X112174905Y-121151147D02*
X112413000Y-121151147D01*
X112413000Y-121151147D02*
X112508238Y-121103528D01*
X112508238Y-121103528D02*
X112555857Y-121008289D01*
X112555857Y-121008289D02*
X112555857Y-120913051D01*
X112555857Y-120913051D02*
X112508238Y-120817813D01*
X112508238Y-120817813D02*
X112413000Y-120770194D01*
X112413000Y-120770194D02*
X112174905Y-120770194D01*
X112174905Y-120770194D02*
X112079667Y-120722575D01*
X111651095Y-121103528D02*
X111555857Y-121151147D01*
X111555857Y-121151147D02*
X111365381Y-121151147D01*
X111365381Y-121151147D02*
X111270143Y-121103528D01*
X111270143Y-121103528D02*
X111222524Y-121008289D01*
X111222524Y-121008289D02*
X111222524Y-120960670D01*
X111222524Y-120960670D02*
X111270143Y-120865432D01*
X111270143Y-120865432D02*
X111365381Y-120817813D01*
X111365381Y-120817813D02*
X111508238Y-120817813D01*
X111508238Y-120817813D02*
X111603476Y-120770194D01*
X111603476Y-120770194D02*
X111651095Y-120674956D01*
X111651095Y-120674956D02*
X111651095Y-120627337D01*
X111651095Y-120627337D02*
X111603476Y-120532099D01*
X111603476Y-120532099D02*
X111508238Y-120484480D01*
X111508238Y-120484480D02*
X111365381Y-120484480D01*
X111365381Y-120484480D02*
X111270143Y-120532099D01*
X110841571Y-121103528D02*
X110746333Y-121151147D01*
X110746333Y-121151147D02*
X110555857Y-121151147D01*
X110555857Y-121151147D02*
X110460619Y-121103528D01*
X110460619Y-121103528D02*
X110413000Y-121008289D01*
X110413000Y-121008289D02*
X110413000Y-120960670D01*
X110413000Y-120960670D02*
X110460619Y-120865432D01*
X110460619Y-120865432D02*
X110555857Y-120817813D01*
X110555857Y-120817813D02*
X110698714Y-120817813D01*
X110698714Y-120817813D02*
X110793952Y-120770194D01*
X110793952Y-120770194D02*
X110841571Y-120674956D01*
X110841571Y-120674956D02*
X110841571Y-120627337D01*
X110841571Y-120627337D02*
X110793952Y-120532099D01*
X110793952Y-120532099D02*
X110698714Y-120484480D01*
X110698714Y-120484480D02*
X110555857Y-120484480D01*
X110555857Y-120484480D02*
X110460619Y-120532099D01*
X109984428Y-121151147D02*
X109984428Y-120484480D01*
X109984428Y-120151147D02*
X110032047Y-120198766D01*
X110032047Y-120198766D02*
X109984428Y-120246385D01*
X109984428Y-120246385D02*
X109936809Y-120198766D01*
X109936809Y-120198766D02*
X109984428Y-120151147D01*
X109984428Y-120151147D02*
X109984428Y-120246385D01*
X109079667Y-121103528D02*
X109174905Y-121151147D01*
X109174905Y-121151147D02*
X109365381Y-121151147D01*
X109365381Y-121151147D02*
X109460619Y-121103528D01*
X109460619Y-121103528D02*
X109508238Y-121055908D01*
X109508238Y-121055908D02*
X109555857Y-120960670D01*
X109555857Y-120960670D02*
X109555857Y-120674956D01*
X109555857Y-120674956D02*
X109508238Y-120579718D01*
X109508238Y-120579718D02*
X109460619Y-120532099D01*
X109460619Y-120532099D02*
X109365381Y-120484480D01*
X109365381Y-120484480D02*
X109174905Y-120484480D01*
X109174905Y-120484480D02*
X109079667Y-120532099D01*
X107984428Y-120484480D02*
X107746333Y-121151147D01*
X107746333Y-121151147D02*
X107508238Y-120484480D01*
X107174904Y-120246385D02*
X107127285Y-120198766D01*
X107127285Y-120198766D02*
X107032047Y-120151147D01*
X107032047Y-120151147D02*
X106793952Y-120151147D01*
X106793952Y-120151147D02*
X106698714Y-120198766D01*
X106698714Y-120198766D02*
X106651095Y-120246385D01*
X106651095Y-120246385D02*
X106603476Y-120341623D01*
X106603476Y-120341623D02*
X106603476Y-120436861D01*
X106603476Y-120436861D02*
X106651095Y-120579718D01*
X106651095Y-120579718D02*
X107222523Y-121151147D01*
X107222523Y-121151147D02*
X106603476Y-121151147D01*
X106174904Y-121055908D02*
X106127285Y-121103528D01*
X106127285Y-121103528D02*
X106174904Y-121151147D01*
X106174904Y-121151147D02*
X106222523Y-121103528D01*
X106222523Y-121103528D02*
X106174904Y-121055908D01*
X106174904Y-121055908D02*
X106174904Y-121151147D01*
X105508238Y-120151147D02*
X105413000Y-120151147D01*
X105413000Y-120151147D02*
X105317762Y-120198766D01*
X105317762Y-120198766D02*
X105270143Y-120246385D01*
X105270143Y-120246385D02*
X105222524Y-120341623D01*
X105222524Y-120341623D02*
X105174905Y-120532099D01*
X105174905Y-120532099D02*
X105174905Y-120770194D01*
X105174905Y-120770194D02*
X105222524Y-120960670D01*
X105222524Y-120960670D02*
X105270143Y-121055908D01*
X105270143Y-121055908D02*
X105317762Y-121103528D01*
X105317762Y-121103528D02*
X105413000Y-121151147D01*
X105413000Y-121151147D02*
X105508238Y-121151147D01*
X105508238Y-121151147D02*
X105603476Y-121103528D01*
X105603476Y-121103528D02*
X105651095Y-121055908D01*
X105651095Y-121055908D02*
X105698714Y-120960670D01*
X105698714Y-120960670D02*
X105746333Y-120770194D01*
X105746333Y-120770194D02*
X105746333Y-120532099D01*
X105746333Y-120532099D02*
X105698714Y-120341623D01*
X105698714Y-120341623D02*
X105651095Y-120246385D01*
X105651095Y-120246385D02*
X105603476Y-120198766D01*
X105603476Y-120198766D02*
X105508238Y-120151147D01*
X119079668Y-122761091D02*
X119079668Y-121761091D01*
X119079668Y-121761091D02*
X118698716Y-121761091D01*
X118698716Y-121761091D02*
X118603478Y-121808710D01*
X118603478Y-121808710D02*
X118555859Y-121856329D01*
X118555859Y-121856329D02*
X118508240Y-121951567D01*
X118508240Y-121951567D02*
X118508240Y-122094424D01*
X118508240Y-122094424D02*
X118555859Y-122189662D01*
X118555859Y-122189662D02*
X118603478Y-122237281D01*
X118603478Y-122237281D02*
X118698716Y-122284900D01*
X118698716Y-122284900D02*
X119079668Y-122284900D01*
X117508240Y-122665852D02*
X117555859Y-122713472D01*
X117555859Y-122713472D02*
X117698716Y-122761091D01*
X117698716Y-122761091D02*
X117793954Y-122761091D01*
X117793954Y-122761091D02*
X117936811Y-122713472D01*
X117936811Y-122713472D02*
X118032049Y-122618233D01*
X118032049Y-122618233D02*
X118079668Y-122522995D01*
X118079668Y-122522995D02*
X118127287Y-122332519D01*
X118127287Y-122332519D02*
X118127287Y-122189662D01*
X118127287Y-122189662D02*
X118079668Y-121999186D01*
X118079668Y-121999186D02*
X118032049Y-121903948D01*
X118032049Y-121903948D02*
X117936811Y-121808710D01*
X117936811Y-121808710D02*
X117793954Y-121761091D01*
X117793954Y-121761091D02*
X117698716Y-121761091D01*
X117698716Y-121761091D02*
X117555859Y-121808710D01*
X117555859Y-121808710D02*
X117508240Y-121856329D01*
X116746335Y-122237281D02*
X116603478Y-122284900D01*
X116603478Y-122284900D02*
X116555859Y-122332519D01*
X116555859Y-122332519D02*
X116508240Y-122427757D01*
X116508240Y-122427757D02*
X116508240Y-122570614D01*
X116508240Y-122570614D02*
X116555859Y-122665852D01*
X116555859Y-122665852D02*
X116603478Y-122713472D01*
X116603478Y-122713472D02*
X116698716Y-122761091D01*
X116698716Y-122761091D02*
X117079668Y-122761091D01*
X117079668Y-122761091D02*
X117079668Y-121761091D01*
X117079668Y-121761091D02*
X116746335Y-121761091D01*
X116746335Y-121761091D02*
X116651097Y-121808710D01*
X116651097Y-121808710D02*
X116603478Y-121856329D01*
X116603478Y-121856329D02*
X116555859Y-121951567D01*
X116555859Y-121951567D02*
X116555859Y-122046805D01*
X116555859Y-122046805D02*
X116603478Y-122142043D01*
X116603478Y-122142043D02*
X116651097Y-122189662D01*
X116651097Y-122189662D02*
X116746335Y-122237281D01*
X116746335Y-122237281D02*
X117079668Y-122237281D01*
X114889192Y-122761091D02*
X114889192Y-121761091D01*
X114889192Y-122713472D02*
X114984430Y-122761091D01*
X114984430Y-122761091D02*
X115174906Y-122761091D01*
X115174906Y-122761091D02*
X115270144Y-122713472D01*
X115270144Y-122713472D02*
X115317763Y-122665852D01*
X115317763Y-122665852D02*
X115365382Y-122570614D01*
X115365382Y-122570614D02*
X115365382Y-122284900D01*
X115365382Y-122284900D02*
X115317763Y-122189662D01*
X115317763Y-122189662D02*
X115270144Y-122142043D01*
X115270144Y-122142043D02*
X115174906Y-122094424D01*
X115174906Y-122094424D02*
X114984430Y-122094424D01*
X114984430Y-122094424D02*
X114889192Y-122142043D01*
X114032049Y-122713472D02*
X114127287Y-122761091D01*
X114127287Y-122761091D02*
X114317763Y-122761091D01*
X114317763Y-122761091D02*
X114413001Y-122713472D01*
X114413001Y-122713472D02*
X114460620Y-122618233D01*
X114460620Y-122618233D02*
X114460620Y-122237281D01*
X114460620Y-122237281D02*
X114413001Y-122142043D01*
X114413001Y-122142043D02*
X114317763Y-122094424D01*
X114317763Y-122094424D02*
X114127287Y-122094424D01*
X114127287Y-122094424D02*
X114032049Y-122142043D01*
X114032049Y-122142043D02*
X113984430Y-122237281D01*
X113984430Y-122237281D02*
X113984430Y-122332519D01*
X113984430Y-122332519D02*
X114460620Y-122427757D01*
X113603477Y-122713472D02*
X113508239Y-122761091D01*
X113508239Y-122761091D02*
X113317763Y-122761091D01*
X113317763Y-122761091D02*
X113222525Y-122713472D01*
X113222525Y-122713472D02*
X113174906Y-122618233D01*
X113174906Y-122618233D02*
X113174906Y-122570614D01*
X113174906Y-122570614D02*
X113222525Y-122475376D01*
X113222525Y-122475376D02*
X113317763Y-122427757D01*
X113317763Y-122427757D02*
X113460620Y-122427757D01*
X113460620Y-122427757D02*
X113555858Y-122380138D01*
X113555858Y-122380138D02*
X113603477Y-122284900D01*
X113603477Y-122284900D02*
X113603477Y-122237281D01*
X113603477Y-122237281D02*
X113555858Y-122142043D01*
X113555858Y-122142043D02*
X113460620Y-122094424D01*
X113460620Y-122094424D02*
X113317763Y-122094424D01*
X113317763Y-122094424D02*
X113222525Y-122142043D01*
X112746334Y-122761091D02*
X112746334Y-122094424D01*
X112746334Y-121761091D02*
X112793953Y-121808710D01*
X112793953Y-121808710D02*
X112746334Y-121856329D01*
X112746334Y-121856329D02*
X112698715Y-121808710D01*
X112698715Y-121808710D02*
X112746334Y-121761091D01*
X112746334Y-121761091D02*
X112746334Y-121856329D01*
X111841573Y-122094424D02*
X111841573Y-122903948D01*
X111841573Y-122903948D02*
X111889192Y-122999186D01*
X111889192Y-122999186D02*
X111936811Y-123046805D01*
X111936811Y-123046805D02*
X112032049Y-123094424D01*
X112032049Y-123094424D02*
X112174906Y-123094424D01*
X112174906Y-123094424D02*
X112270144Y-123046805D01*
X111841573Y-122713472D02*
X111936811Y-122761091D01*
X111936811Y-122761091D02*
X112127287Y-122761091D01*
X112127287Y-122761091D02*
X112222525Y-122713472D01*
X112222525Y-122713472D02*
X112270144Y-122665852D01*
X112270144Y-122665852D02*
X112317763Y-122570614D01*
X112317763Y-122570614D02*
X112317763Y-122284900D01*
X112317763Y-122284900D02*
X112270144Y-122189662D01*
X112270144Y-122189662D02*
X112222525Y-122142043D01*
X112222525Y-122142043D02*
X112127287Y-122094424D01*
X112127287Y-122094424D02*
X111936811Y-122094424D01*
X111936811Y-122094424D02*
X111841573Y-122142043D01*
X111365382Y-122094424D02*
X111365382Y-122761091D01*
X111365382Y-122189662D02*
X111317763Y-122142043D01*
X111317763Y-122142043D02*
X111222525Y-122094424D01*
X111222525Y-122094424D02*
X111079668Y-122094424D01*
X111079668Y-122094424D02*
X110984430Y-122142043D01*
X110984430Y-122142043D02*
X110936811Y-122237281D01*
X110936811Y-122237281D02*
X110936811Y-122761091D01*
X110079668Y-122713472D02*
X110174906Y-122761091D01*
X110174906Y-122761091D02*
X110365382Y-122761091D01*
X110365382Y-122761091D02*
X110460620Y-122713472D01*
X110460620Y-122713472D02*
X110508239Y-122618233D01*
X110508239Y-122618233D02*
X110508239Y-122237281D01*
X110508239Y-122237281D02*
X110460620Y-122142043D01*
X110460620Y-122142043D02*
X110365382Y-122094424D01*
X110365382Y-122094424D02*
X110174906Y-122094424D01*
X110174906Y-122094424D02*
X110079668Y-122142043D01*
X110079668Y-122142043D02*
X110032049Y-122237281D01*
X110032049Y-122237281D02*
X110032049Y-122332519D01*
X110032049Y-122332519D02*
X110508239Y-122427757D01*
X109174906Y-122761091D02*
X109174906Y-121761091D01*
X109174906Y-122713472D02*
X109270144Y-122761091D01*
X109270144Y-122761091D02*
X109460620Y-122761091D01*
X109460620Y-122761091D02*
X109555858Y-122713472D01*
X109555858Y-122713472D02*
X109603477Y-122665852D01*
X109603477Y-122665852D02*
X109651096Y-122570614D01*
X109651096Y-122570614D02*
X109651096Y-122284900D01*
X109651096Y-122284900D02*
X109603477Y-122189662D01*
X109603477Y-122189662D02*
X109555858Y-122142043D01*
X109555858Y-122142043D02*
X109460620Y-122094424D01*
X109460620Y-122094424D02*
X109270144Y-122094424D01*
X109270144Y-122094424D02*
X109174906Y-122142043D01*
X107936810Y-122761091D02*
X107936810Y-121761091D01*
X107936810Y-122142043D02*
X107841572Y-122094424D01*
X107841572Y-122094424D02*
X107651096Y-122094424D01*
X107651096Y-122094424D02*
X107555858Y-122142043D01*
X107555858Y-122142043D02*
X107508239Y-122189662D01*
X107508239Y-122189662D02*
X107460620Y-122284900D01*
X107460620Y-122284900D02*
X107460620Y-122570614D01*
X107460620Y-122570614D02*
X107508239Y-122665852D01*
X107508239Y-122665852D02*
X107555858Y-122713472D01*
X107555858Y-122713472D02*
X107651096Y-122761091D01*
X107651096Y-122761091D02*
X107841572Y-122761091D01*
X107841572Y-122761091D02*
X107936810Y-122713472D01*
X107127286Y-122094424D02*
X106889191Y-122761091D01*
X106651096Y-122094424D02*
X106889191Y-122761091D01*
X106889191Y-122761091D02*
X106984429Y-122999186D01*
X106984429Y-122999186D02*
X107032048Y-123046805D01*
X107032048Y-123046805D02*
X107127286Y-123094424D01*
X105651095Y-122094424D02*
X105270143Y-122094424D01*
X105508238Y-122761091D02*
X105508238Y-121903948D01*
X105508238Y-121903948D02*
X105460619Y-121808710D01*
X105460619Y-121808710D02*
X105365381Y-121761091D01*
X105365381Y-121761091D02*
X105270143Y-121761091D01*
X104793952Y-122761091D02*
X104889190Y-122713472D01*
X104889190Y-122713472D02*
X104936809Y-122665852D01*
X104936809Y-122665852D02*
X104984428Y-122570614D01*
X104984428Y-122570614D02*
X104984428Y-122284900D01*
X104984428Y-122284900D02*
X104936809Y-122189662D01*
X104936809Y-122189662D02*
X104889190Y-122142043D01*
X104889190Y-122142043D02*
X104793952Y-122094424D01*
X104793952Y-122094424D02*
X104651095Y-122094424D01*
X104651095Y-122094424D02*
X104555857Y-122142043D01*
X104555857Y-122142043D02*
X104508238Y-122189662D01*
X104508238Y-122189662D02*
X104460619Y-122284900D01*
X104460619Y-122284900D02*
X104460619Y-122570614D01*
X104460619Y-122570614D02*
X104508238Y-122665852D01*
X104508238Y-122665852D02*
X104555857Y-122713472D01*
X104555857Y-122713472D02*
X104651095Y-122761091D01*
X104651095Y-122761091D02*
X104793952Y-122761091D01*
X103889190Y-122761091D02*
X103984428Y-122713472D01*
X103984428Y-122713472D02*
X104032047Y-122665852D01*
X104032047Y-122665852D02*
X104079666Y-122570614D01*
X104079666Y-122570614D02*
X104079666Y-122284900D01*
X104079666Y-122284900D02*
X104032047Y-122189662D01*
X104032047Y-122189662D02*
X103984428Y-122142043D01*
X103984428Y-122142043D02*
X103889190Y-122094424D01*
X103889190Y-122094424D02*
X103746333Y-122094424D01*
X103746333Y-122094424D02*
X103651095Y-122142043D01*
X103651095Y-122142043D02*
X103603476Y-122189662D01*
X103603476Y-122189662D02*
X103555857Y-122284900D01*
X103555857Y-122284900D02*
X103555857Y-122570614D01*
X103555857Y-122570614D02*
X103603476Y-122665852D01*
X103603476Y-122665852D02*
X103651095Y-122713472D01*
X103651095Y-122713472D02*
X103746333Y-122761091D01*
X103746333Y-122761091D02*
X103889190Y-122761091D01*
X103174904Y-122713472D02*
X103079666Y-122761091D01*
X103079666Y-122761091D02*
X102889190Y-122761091D01*
X102889190Y-122761091D02*
X102793952Y-122713472D01*
X102793952Y-122713472D02*
X102746333Y-122618233D01*
X102746333Y-122618233D02*
X102746333Y-122570614D01*
X102746333Y-122570614D02*
X102793952Y-122475376D01*
X102793952Y-122475376D02*
X102889190Y-122427757D01*
X102889190Y-122427757D02*
X103032047Y-122427757D01*
X103032047Y-122427757D02*
X103127285Y-122380138D01*
X103127285Y-122380138D02*
X103174904Y-122284900D01*
X103174904Y-122284900D02*
X103174904Y-122237281D01*
X103174904Y-122237281D02*
X103127285Y-122142043D01*
X103127285Y-122142043D02*
X103032047Y-122094424D01*
X103032047Y-122094424D02*
X102889190Y-122094424D01*
X102889190Y-122094424D02*
X102793952Y-122142043D01*
X102460618Y-122094424D02*
X102079666Y-122094424D01*
X102317761Y-121761091D02*
X102317761Y-122618233D01*
X102317761Y-122618233D02*
X102270142Y-122713472D01*
X102270142Y-122713472D02*
X102174904Y-122761091D01*
X102174904Y-122761091D02*
X102079666Y-122761091D01*
X101317761Y-122761091D02*
X101317761Y-122237281D01*
X101317761Y-122237281D02*
X101365380Y-122142043D01*
X101365380Y-122142043D02*
X101460618Y-122094424D01*
X101460618Y-122094424D02*
X101651094Y-122094424D01*
X101651094Y-122094424D02*
X101746332Y-122142043D01*
X101317761Y-122713472D02*
X101412999Y-122761091D01*
X101412999Y-122761091D02*
X101651094Y-122761091D01*
X101651094Y-122761091D02*
X101746332Y-122713472D01*
X101746332Y-122713472D02*
X101793951Y-122618233D01*
X101793951Y-122618233D02*
X101793951Y-122522995D01*
X101793951Y-122522995D02*
X101746332Y-122427757D01*
X101746332Y-122427757D02*
X101651094Y-122380138D01*
X101651094Y-122380138D02*
X101412999Y-122380138D01*
X101412999Y-122380138D02*
X101317761Y-122332519D01*
X100841570Y-122094424D02*
X100841570Y-122761091D01*
X100841570Y-122189662D02*
X100793951Y-122142043D01*
X100793951Y-122142043D02*
X100698713Y-122094424D01*
X100698713Y-122094424D02*
X100555856Y-122094424D01*
X100555856Y-122094424D02*
X100460618Y-122142043D01*
X100460618Y-122142043D02*
X100412999Y-122237281D01*
X100412999Y-122237281D02*
X100412999Y-122761091D01*
D11*
X62000000Y-75350000D03*
D12*
X62000000Y-73315000D03*
D11*
X62000000Y-78900000D03*
D13*
X62000000Y-80935000D03*
D11*
X97000000Y-75350000D03*
D12*
X97000000Y-73315000D03*
D11*
X97000000Y-78900000D03*
D13*
X97000000Y-80935000D03*
D11*
X116000000Y-70600000D03*
D12*
X116000000Y-68565000D03*
D13*
X116000000Y-76185000D03*
D11*
X116000000Y-74150000D03*
X135000000Y-68225000D03*
D12*
X135000000Y-66190000D03*
D13*
X135000000Y-73810000D03*
D11*
X135000000Y-71775000D03*
D12*
X154000000Y-68565000D03*
D11*
X154000000Y-70600000D03*
D13*
X154000000Y-76185000D03*
D11*
X154000000Y-74150000D03*
X157000000Y-70600000D03*
D12*
X157000000Y-68565000D03*
D11*
X157000000Y-74150000D03*
D13*
X157000000Y-76185000D03*
D12*
X62000000Y-92315000D03*
D11*
X62000000Y-94350000D03*
X62000000Y-97900000D03*
D13*
X62000000Y-99935000D03*
D12*
X97000000Y-92315000D03*
D11*
X97000000Y-94350000D03*
D13*
X97000000Y-99935000D03*
D11*
X97000000Y-97900000D03*
D12*
X116000000Y-87565000D03*
D11*
X116000000Y-89600000D03*
D13*
X116000000Y-95185000D03*
D11*
X116000000Y-93150000D03*
D12*
X135000000Y-85190000D03*
D11*
X135000000Y-87225000D03*
X135000000Y-90775000D03*
D13*
X135000000Y-92810000D03*
D12*
X154000000Y-87565000D03*
D11*
X154000000Y-89600000D03*
D13*
X154000000Y-95185000D03*
D11*
X154000000Y-93150000D03*
D12*
X157000000Y-87565000D03*
D11*
X157000000Y-89600000D03*
X157000000Y-93150000D03*
D13*
X157000000Y-95185000D03*
D12*
X62000000Y-111315000D03*
D11*
X62000000Y-113350000D03*
D13*
X62000000Y-118935000D03*
D11*
X62000000Y-116900000D03*
X97000000Y-113350000D03*
D12*
X97000000Y-111315000D03*
D11*
X97000000Y-116900000D03*
D13*
X97000000Y-118935000D03*
D11*
X116000000Y-108600000D03*
D12*
X116000000Y-106565000D03*
D13*
X116000000Y-114185000D03*
D11*
X116000000Y-112150000D03*
D12*
X135000000Y-104190000D03*
D11*
X135000000Y-106225000D03*
D13*
X135000000Y-111810000D03*
D11*
X135000000Y-109775000D03*
D12*
X154000000Y-106565000D03*
D11*
X154000000Y-108600000D03*
X154000000Y-112150000D03*
D13*
X154000000Y-114185000D03*
D11*
X157000000Y-108600000D03*
D12*
X157000000Y-106565000D03*
D13*
X157000000Y-114185000D03*
D11*
X157000000Y-112150000D03*
X128500000Y-128225000D03*
D12*
X128500000Y-126190000D03*
D11*
X128500000Y-131775000D03*
D13*
X128500000Y-133810000D03*
D12*
X144500000Y-125940000D03*
D11*
X144500000Y-127975000D03*
X144500000Y-131525000D03*
D13*
X144500000Y-133560000D03*
D11*
X147500000Y-127975000D03*
D12*
X147500000Y-125940000D03*
D13*
X147500000Y-133560000D03*
D11*
X147500000Y-131525000D03*
D14*
X67600000Y-70750000D03*
X67600000Y-72500000D03*
X72400000Y-72500000D03*
X72400000Y-70750000D03*
X86600000Y-70750000D03*
X86600000Y-72500000D03*
X91400000Y-72500000D03*
X91400000Y-70750000D03*
X105600000Y-66000000D03*
X105600000Y-67750000D03*
X110400000Y-67750000D03*
X110400000Y-66000000D03*
X124600000Y-63625000D03*
X124600000Y-65375000D03*
X129400000Y-65375000D03*
X129400000Y-63625000D03*
X143600000Y-66000000D03*
X143600000Y-67750000D03*
X148400000Y-67750000D03*
X148400000Y-66000000D03*
X162600000Y-68375000D03*
X162600000Y-70125000D03*
X167400000Y-70125000D03*
X167400000Y-68375000D03*
X67600000Y-89750000D03*
X67600000Y-91500000D03*
X72400000Y-91500000D03*
X72400000Y-89750000D03*
X86600000Y-89750000D03*
X86600000Y-91500000D03*
X91400000Y-91500000D03*
X91400000Y-89750000D03*
X105600000Y-85000000D03*
X105600000Y-86750000D03*
X110400000Y-86750000D03*
X110400000Y-85000000D03*
X124600000Y-82625000D03*
X124600000Y-84375000D03*
X129400000Y-84375000D03*
X129400000Y-82625000D03*
X143600000Y-85000000D03*
X143600000Y-86750000D03*
X148400000Y-86750000D03*
X148400000Y-85000000D03*
X162600000Y-87375000D03*
X162600000Y-89125000D03*
X167400000Y-89125000D03*
X167400000Y-87375000D03*
X67600000Y-108750000D03*
X67600000Y-110500000D03*
X72400000Y-110500000D03*
X72400000Y-108750000D03*
X86600000Y-108750000D03*
X86600000Y-110500000D03*
X91400000Y-110500000D03*
X91400000Y-108750000D03*
X105600000Y-104000000D03*
X105600000Y-105750000D03*
X110400000Y-105750000D03*
X110400000Y-104000000D03*
X124600000Y-101625000D03*
X124600000Y-103375000D03*
X129400000Y-103375000D03*
X129400000Y-101625000D03*
X143600000Y-104000000D03*
X143600000Y-105750000D03*
X148400000Y-105750000D03*
X148400000Y-104000000D03*
X162600000Y-106375000D03*
X162600000Y-108125000D03*
X167400000Y-108125000D03*
X167400000Y-106375000D03*
X134100000Y-123625000D03*
X134100000Y-125375000D03*
X138900000Y-125375000D03*
X138900000Y-123625000D03*
D15*
X156908245Y-126033649D03*
X156455311Y-127724019D03*
X161091755Y-128966351D03*
X161544689Y-127275981D03*
D16*
X176957772Y-132109039D03*
X175442228Y-131234039D03*
X173042228Y-135390961D03*
X174557772Y-136265961D03*
D17*
X64920000Y-77125000D03*
D18*
X75500000Y-77125000D03*
D17*
X75080000Y-77125000D03*
D19*
X70000000Y-77125000D03*
D20*
X75220000Y-72925000D03*
D18*
X64500000Y-77125000D03*
D20*
X64780000Y-72925000D03*
D21*
X72540000Y-82205000D03*
D22*
X64900000Y-81025000D03*
D23*
X75100000Y-81025000D03*
D24*
X73810000Y-79665000D03*
D21*
X72540000Y-81125000D03*
X72540000Y-81625000D03*
X67460000Y-81125000D03*
D25*
X70000000Y-83025000D03*
D21*
X67460000Y-82205000D03*
D26*
X66190000Y-79665000D03*
D21*
X67460000Y-81625000D03*
D19*
X89000000Y-77125000D03*
D20*
X83780000Y-72925000D03*
D17*
X94080000Y-77125000D03*
X83920000Y-77125000D03*
D20*
X94220000Y-72925000D03*
D18*
X83500000Y-77125000D03*
X94500000Y-77125000D03*
D23*
X94100000Y-81025000D03*
D22*
X83900000Y-81025000D03*
D24*
X92810000Y-79665000D03*
D21*
X91540000Y-81625000D03*
X91540000Y-81125000D03*
X91540000Y-82205000D03*
D26*
X85190000Y-79665000D03*
D25*
X89000000Y-83025000D03*
D21*
X86460000Y-82205000D03*
X86460000Y-81625000D03*
X86460000Y-81125000D03*
D20*
X102780000Y-68175000D03*
D19*
X108000000Y-72375000D03*
D17*
X102920000Y-72375000D03*
D20*
X113220000Y-68175000D03*
D18*
X102500000Y-72375000D03*
X113500000Y-72375000D03*
D17*
X113080000Y-72375000D03*
D21*
X110540000Y-77455000D03*
X110540000Y-76875000D03*
D24*
X111810000Y-74915000D03*
D21*
X110540000Y-76375000D03*
D22*
X102900000Y-76275000D03*
D23*
X113100000Y-76275000D03*
D21*
X105460000Y-76375000D03*
D25*
X108000000Y-78275000D03*
D26*
X104190000Y-74915000D03*
D21*
X105460000Y-77455000D03*
X105460000Y-76875000D03*
D17*
X132080000Y-70000000D03*
X121920000Y-70000000D03*
D20*
X132220000Y-65800000D03*
D19*
X127000000Y-70000000D03*
D20*
X121780000Y-65800000D03*
D18*
X132500000Y-70000000D03*
X121500000Y-70000000D03*
D21*
X129540000Y-74000000D03*
D23*
X132100000Y-73900000D03*
D22*
X121900000Y-73900000D03*
D21*
X129540000Y-75080000D03*
D24*
X130810000Y-72540000D03*
D21*
X129540000Y-74500000D03*
X124460000Y-74000000D03*
D25*
X127000000Y-75900000D03*
D26*
X123190000Y-72540000D03*
D21*
X124460000Y-75080000D03*
X124460000Y-74500000D03*
D19*
X146000000Y-72375000D03*
D17*
X151080000Y-72375000D03*
D18*
X151500000Y-72375000D03*
D20*
X151220000Y-68175000D03*
D18*
X140500000Y-72375000D03*
D20*
X140780000Y-68175000D03*
D17*
X140920000Y-72375000D03*
D21*
X148540000Y-76375000D03*
X148540000Y-76875000D03*
X148540000Y-77455000D03*
D22*
X140900000Y-76275000D03*
D23*
X151100000Y-76275000D03*
D24*
X149810000Y-74915000D03*
D21*
X143460000Y-77455000D03*
X143460000Y-76375000D03*
D25*
X146000000Y-78275000D03*
D21*
X143460000Y-76875000D03*
D26*
X142190000Y-74915000D03*
D17*
X170080000Y-74750000D03*
D18*
X170500000Y-74750000D03*
X159500000Y-74750000D03*
D20*
X159780000Y-70550000D03*
X170220000Y-70550000D03*
D17*
X159920000Y-74750000D03*
D19*
X165000000Y-74750000D03*
D21*
X167540000Y-79830000D03*
X167540000Y-78750000D03*
D24*
X168810000Y-77290000D03*
D21*
X167540000Y-79250000D03*
D23*
X170100000Y-78650000D03*
D22*
X159900000Y-78650000D03*
D25*
X165000000Y-80650000D03*
D21*
X162460000Y-79250000D03*
D26*
X161190000Y-77290000D03*
D21*
X162460000Y-79830000D03*
X162460000Y-78750000D03*
D20*
X75220000Y-91925000D03*
D17*
X75080000Y-96125000D03*
D18*
X75500000Y-96125000D03*
D19*
X70000000Y-96125000D03*
D17*
X64920000Y-96125000D03*
D18*
X64500000Y-96125000D03*
D20*
X64780000Y-91925000D03*
D22*
X64900000Y-100025000D03*
D23*
X75100000Y-100025000D03*
D21*
X72540000Y-100125000D03*
D24*
X73810000Y-98665000D03*
D21*
X72540000Y-101205000D03*
X72540000Y-100625000D03*
X67460000Y-101205000D03*
D26*
X66190000Y-98665000D03*
D21*
X67460000Y-100625000D03*
X67460000Y-100125000D03*
D25*
X70000000Y-102025000D03*
D19*
X89000000Y-96125000D03*
D17*
X94080000Y-96125000D03*
X83920000Y-96125000D03*
D20*
X94220000Y-91925000D03*
D18*
X94500000Y-96125000D03*
X83500000Y-96125000D03*
D20*
X83780000Y-91925000D03*
D23*
X94100000Y-100025000D03*
D21*
X91540000Y-100125000D03*
D22*
X83900000Y-100025000D03*
D21*
X91540000Y-100625000D03*
D24*
X92810000Y-98665000D03*
D21*
X91540000Y-101205000D03*
X86460000Y-101205000D03*
D26*
X85190000Y-98665000D03*
D25*
X89000000Y-102025000D03*
D21*
X86460000Y-100125000D03*
X86460000Y-100625000D03*
D19*
X108000000Y-91375000D03*
D20*
X113220000Y-87175000D03*
D18*
X102500000Y-91375000D03*
X113500000Y-91375000D03*
D20*
X102780000Y-87175000D03*
D17*
X102920000Y-91375000D03*
X113080000Y-91375000D03*
D22*
X102900000Y-95275000D03*
D23*
X113100000Y-95275000D03*
D21*
X110540000Y-96455000D03*
X110540000Y-95375000D03*
X110540000Y-95875000D03*
D24*
X111810000Y-93915000D03*
D25*
X108000000Y-97275000D03*
D21*
X105460000Y-95875000D03*
D26*
X104190000Y-93915000D03*
D21*
X105460000Y-95375000D03*
X105460000Y-96455000D03*
D17*
X132080000Y-89000000D03*
X121920000Y-89000000D03*
D20*
X132220000Y-84800000D03*
X121780000Y-84800000D03*
D18*
X121500000Y-89000000D03*
X132500000Y-89000000D03*
D19*
X127000000Y-89000000D03*
D23*
X132100000Y-92900000D03*
D24*
X130810000Y-91540000D03*
D21*
X129540000Y-93500000D03*
D22*
X121900000Y-92900000D03*
D21*
X129540000Y-93000000D03*
X129540000Y-94080000D03*
D25*
X127000000Y-94900000D03*
D21*
X124460000Y-93500000D03*
X124460000Y-93000000D03*
D26*
X123190000Y-91540000D03*
D21*
X124460000Y-94080000D03*
D17*
X140920000Y-91375000D03*
D20*
X151220000Y-87175000D03*
D17*
X151080000Y-91375000D03*
D19*
X146000000Y-91375000D03*
D18*
X151500000Y-91375000D03*
D20*
X140780000Y-87175000D03*
D18*
X140500000Y-91375000D03*
D21*
X148540000Y-95375000D03*
D22*
X140900000Y-95275000D03*
D24*
X149810000Y-93915000D03*
D21*
X148540000Y-95875000D03*
D23*
X151100000Y-95275000D03*
D21*
X148540000Y-96455000D03*
D25*
X146000000Y-97275000D03*
D21*
X143460000Y-96455000D03*
D26*
X142190000Y-93915000D03*
D21*
X143460000Y-95875000D03*
X143460000Y-95375000D03*
D19*
X165000000Y-93750000D03*
D18*
X159500000Y-93750000D03*
X170500000Y-93750000D03*
D17*
X159920000Y-93750000D03*
D20*
X170220000Y-89550000D03*
X159780000Y-89550000D03*
D17*
X170080000Y-93750000D03*
D21*
X167540000Y-97750000D03*
D24*
X168810000Y-96290000D03*
D22*
X159900000Y-97650000D03*
D23*
X170100000Y-97650000D03*
D21*
X167540000Y-98830000D03*
X167540000Y-98250000D03*
D25*
X165000000Y-99650000D03*
D21*
X162460000Y-97750000D03*
D26*
X161190000Y-96290000D03*
D21*
X162460000Y-98830000D03*
X162460000Y-98250000D03*
D17*
X75080000Y-115125000D03*
D20*
X64780000Y-110925000D03*
D18*
X64500000Y-115125000D03*
D19*
X70000000Y-115125000D03*
D20*
X75220000Y-110925000D03*
D18*
X75500000Y-115125000D03*
D17*
X64920000Y-115125000D03*
D24*
X73810000Y-117665000D03*
D22*
X64900000Y-119025000D03*
D21*
X72540000Y-120205000D03*
X72540000Y-119125000D03*
D23*
X75100000Y-119025000D03*
D21*
X72540000Y-119625000D03*
X67460000Y-119625000D03*
D25*
X70000000Y-121025000D03*
D21*
X67460000Y-119125000D03*
D26*
X66190000Y-117665000D03*
D21*
X67460000Y-120205000D03*
D20*
X94220000Y-110925000D03*
X83780000Y-110925000D03*
D18*
X94500000Y-115125000D03*
D19*
X89000000Y-115125000D03*
D17*
X83920000Y-115125000D03*
D18*
X83500000Y-115125000D03*
D17*
X94080000Y-115125000D03*
D22*
X83900000Y-119025000D03*
D23*
X94100000Y-119025000D03*
D21*
X91540000Y-120205000D03*
X91540000Y-119125000D03*
D24*
X92810000Y-117665000D03*
D21*
X91540000Y-119625000D03*
X86460000Y-119125000D03*
X86460000Y-120205000D03*
X86460000Y-119625000D03*
D25*
X89000000Y-121025000D03*
D26*
X85190000Y-117665000D03*
D20*
X113220000Y-106175000D03*
D18*
X102500000Y-110375000D03*
D17*
X102920000Y-110375000D03*
X113080000Y-110375000D03*
D18*
X113500000Y-110375000D03*
D20*
X102780000Y-106175000D03*
D19*
X108000000Y-110375000D03*
D22*
X102900000Y-114275000D03*
D21*
X110540000Y-115455000D03*
X110540000Y-114875000D03*
D23*
X113100000Y-114275000D03*
D24*
X111810000Y-112915000D03*
D21*
X110540000Y-114375000D03*
X105460000Y-114375000D03*
X105460000Y-115455000D03*
D26*
X104190000Y-112915000D03*
D25*
X108000000Y-116275000D03*
D21*
X105460000Y-114875000D03*
D17*
X121920000Y-108000000D03*
D19*
X127000000Y-108000000D03*
D18*
X121500000Y-108000000D03*
X132500000Y-108000000D03*
D17*
X132080000Y-108000000D03*
D20*
X132220000Y-103800000D03*
X121780000Y-103800000D03*
D21*
X129540000Y-113080000D03*
D22*
X121900000Y-111900000D03*
D21*
X129540000Y-112000000D03*
D23*
X132100000Y-111900000D03*
D24*
X130810000Y-110540000D03*
D21*
X129540000Y-112500000D03*
X124460000Y-112000000D03*
D26*
X123190000Y-110540000D03*
D25*
X127000000Y-113900000D03*
D21*
X124460000Y-112500000D03*
X124460000Y-113080000D03*
D18*
X151500000Y-110375000D03*
X140500000Y-110375000D03*
D20*
X140780000Y-106175000D03*
D17*
X151080000Y-110375000D03*
D20*
X151220000Y-106175000D03*
D17*
X140920000Y-110375000D03*
D19*
X146000000Y-110375000D03*
D21*
X148540000Y-114375000D03*
D24*
X149810000Y-112915000D03*
D21*
X148540000Y-114875000D03*
D22*
X140900000Y-114275000D03*
D21*
X148540000Y-115455000D03*
D23*
X151100000Y-114275000D03*
D26*
X142190000Y-112915000D03*
D21*
X143460000Y-114375000D03*
X143460000Y-114875000D03*
X143460000Y-115455000D03*
D25*
X146000000Y-116275000D03*
D20*
X159780000Y-108550000D03*
X170220000Y-108550000D03*
D18*
X170500000Y-112750000D03*
D17*
X159920000Y-112750000D03*
X170080000Y-112750000D03*
D19*
X165000000Y-112750000D03*
D18*
X159500000Y-112750000D03*
D21*
X167540000Y-117250000D03*
D23*
X170100000Y-116650000D03*
D21*
X167540000Y-117830000D03*
X167540000Y-116750000D03*
D24*
X168810000Y-115290000D03*
D22*
X159900000Y-116650000D03*
D21*
X162460000Y-117250000D03*
D26*
X161190000Y-115290000D03*
D21*
X162460000Y-116750000D03*
X162460000Y-117830000D03*
D25*
X165000000Y-118650000D03*
D20*
X141720000Y-125800000D03*
D17*
X141580000Y-130000000D03*
D20*
X131280000Y-125800000D03*
D18*
X131000000Y-130000000D03*
X142000000Y-130000000D03*
D17*
X131420000Y-130000000D03*
D19*
X136500000Y-130000000D03*
D21*
X139040000Y-134500000D03*
D22*
X131400000Y-133900000D03*
D21*
X139040000Y-135080000D03*
D23*
X141600000Y-133900000D03*
D21*
X139040000Y-134000000D03*
D24*
X140310000Y-132540000D03*
D21*
X133960000Y-134500000D03*
X133960000Y-135080000D03*
D26*
X132690000Y-132540000D03*
D25*
X136500000Y-135900000D03*
D21*
X133960000Y-134000000D03*
D18*
X152187408Y-131326495D03*
D17*
X162406903Y-134064801D03*
D19*
X157500000Y-132750000D03*
D17*
X152593097Y-131435199D03*
D20*
X163629173Y-130044147D03*
D18*
X162812592Y-134173505D03*
D20*
X153544907Y-127342076D03*
D21*
X158788766Y-137754067D03*
X158638651Y-138314304D03*
X158918175Y-137271104D03*
D27*
X160522777Y-136189552D03*
D28*
X151564384Y-135197134D03*
D29*
X161416827Y-137837088D03*
D21*
X154011272Y-135956303D03*
X153731748Y-136999503D03*
D30*
X153162422Y-134217351D03*
D21*
X153881863Y-136439266D03*
D25*
X155972968Y-138448962D03*
D17*
X182290000Y-132100591D03*
D20*
X178722693Y-129879347D03*
D18*
X182500000Y-131736860D03*
D19*
X179750000Y-136500000D03*
D17*
X177210000Y-140899409D03*
D20*
X173502693Y-138920653D03*
D18*
X177000000Y-141263140D03*
D21*
X184484102Y-136300295D03*
X185419409Y-136840295D03*
D31*
X185677499Y-134033270D03*
D32*
X180577499Y-142866730D03*
D21*
X184917113Y-136550295D03*
D33*
X183854705Y-134470443D03*
D25*
X184859550Y-139450000D03*
D34*
X180044705Y-141069557D03*
D21*
X181944102Y-140699705D03*
X182377114Y-140949705D03*
X182879409Y-141239705D03*
D35*
X176860000Y-73042000D03*
X193406400Y-71772000D03*
X193406400Y-74312000D03*
X176860000Y-75582000D03*
X193406400Y-76852000D03*
X176860000Y-78122000D03*
X176860000Y-80662000D03*
X193406400Y-79392000D03*
X176860000Y-83202000D03*
X193406400Y-81932000D03*
X193406400Y-84472000D03*
X176860000Y-85742000D03*
X193406400Y-87012000D03*
X176860000Y-88282000D03*
X193406400Y-89552000D03*
X176860000Y-90822000D03*
X193406400Y-92092000D03*
X176860000Y-93362000D03*
X176860000Y-95902000D03*
X193406400Y-94632000D03*
X193406400Y-97172000D03*
X176860000Y-98442000D03*
X176860000Y-100982000D03*
X193406400Y-99712000D03*
X178186400Y-99712000D03*
X192100000Y-100982000D03*
X192100000Y-98442000D03*
X178186400Y-97172000D03*
X192100000Y-95902000D03*
X178186400Y-94632000D03*
X192100000Y-93362000D03*
X178186400Y-92092000D03*
X192100000Y-90822000D03*
X178186400Y-89552000D03*
X178186400Y-87012000D03*
X192100000Y-88282000D03*
X192100000Y-85742000D03*
X178186400Y-84472000D03*
X178186400Y-81932000D03*
X192100000Y-83202000D03*
X192100000Y-80662000D03*
X178186400Y-79392000D03*
X192100000Y-78122000D03*
X178186400Y-76852000D03*
X192100000Y-75582000D03*
X178186400Y-74312000D03*
X178186400Y-71772000D03*
X192100000Y-73042000D03*
D13*
X189540000Y-108000000D03*
X184460000Y-108000000D03*
X189540000Y-110300000D03*
X184460000Y-110300000D03*
D19*
X177750000Y-115750000D03*
X192250000Y-124250000D03*
D36*
X79500000Y-86750000D03*
X79500000Y-105500000D03*
X98500000Y-86750000D03*
X98500000Y-105750000D03*
X155500000Y-83000000D03*
X122750000Y-122750000D03*
X169250000Y-130500000D03*
D37*
X174000000Y-102820000D03*
X174000000Y-105360000D03*
X174000000Y-107900000D03*
D13*
X181300000Y-105300000D03*
X183840000Y-105300000D03*
X186380000Y-105300000D03*
X188920000Y-105300000D03*
X181000000Y-108000000D03*
X181000000Y-110300000D03*
D38*
X186200000Y-116700000D03*
X193200000Y-116700000D03*
X186200000Y-114950000D03*
X193200000Y-114950000D03*
D39*
X182900000Y-114600000D03*
X182900000Y-117050000D03*
X191400000Y-118800000D03*
X191400000Y-112850000D03*
X188400000Y-118800000D03*
X188400000Y-112850000D03*
X184400000Y-112850000D03*
X184400000Y-118800000D03*
D40*
X192900000Y-103750000D03*
X192900000Y-110250000D03*
D41*
X86800000Y-86775000D03*
X86800000Y-85025000D03*
X91200000Y-85025000D03*
X91200000Y-86775000D03*
X124800000Y-79675000D03*
X124800000Y-77925000D03*
X129200000Y-77925000D03*
X129200000Y-79675000D03*
X162800000Y-84375000D03*
X162800000Y-82625000D03*
X167200000Y-82625000D03*
X167200000Y-84375000D03*
D42*
X91200000Y-104025000D03*
X91200000Y-105775000D03*
X86800000Y-105775000D03*
X86800000Y-104025000D03*
X129200000Y-115925000D03*
X129200000Y-117675000D03*
X124800000Y-117675000D03*
X124800000Y-115925000D03*
X167200000Y-120625000D03*
X167200000Y-122375000D03*
X162800000Y-122375000D03*
X162800000Y-120625000D03*
D43*
X188875000Y-100749620D03*
X188875000Y-101750380D03*
X186375000Y-100749620D03*
X186375000Y-101750380D03*
X183875000Y-100749620D03*
X183875000Y-101750380D03*
X181375000Y-100749620D03*
X181375000Y-101750380D03*
M02*
